<?xml version="1.0" encoding="UTF-8"?><!DOCTYPE svg PUBLIC "-//W3C//DTD SVG 1.1//EN" "http://www.w3.org/Graphics/SVG/1.1/DTD/svg11.dtd"><svg xmlns="http://www.w3.org/2000/svg" xmlns:xlink="http://www.w3.org/1999/xlink" version="1.1" width="24" height="24" viewBox="0 0 24 24"><path d="M16,12C16,10.89 15.55,9.89 14.83,9.17L16.24,7.76C17.33,8.85 18,10.35 18,12C17.28,12 16.6,12.13 15.96,12.36C15.97,12.24 16,12.12 16,12M20,12.34C20.68,12.59 21.33,12.96 21.88,13.43C21.95,12.96 22,12.5 22,12C22,9.24 20.88,6.74 19.07,4.93L17.66,6.34C19.11,7.78 20,9.79 20,12C20,12.12 20,12.23 20,12.34M12,10C10.9,10 10,10.9 10,12M6.34,6.34L4.93,4.93C3.12,6.74 2,9.24 2,12L6.34,17.66C4.89,16.22 4,14.22 4,12C4,9.79 4.89,7.78 6.34,6.34M7.76,7.76C6.67,8.85 6,10.35 6,12L9.17,14.83C8.45,14.11 8,13.11 8,12L7.76,7.76M19,14H17V17H14V19H17V22H19V19H22V17H19V14Z" /></svg>